<?xml version="1.0" encoding="utf-8"?>
<!-- Generator: Adobe Illustrator 25.3.1, SVG Export Plug-In . SVG Version: 6.00 Build 0)  -->
<svg version="1.1" id="Layer_1" xmlns="http://www.w3.org/2000/svg" xmlns:xlink="http://www.w3.org/1999/xlink" x="0px" y="0px"
	 viewBox="0 0 1200 1200" style="enable-background:new 0 0 1200 1200;" xml:space="preserve">
<style type="text/css">
	.st0{fill:#53C3BE;}
	.st1{enable-background:new    ;}
</style>
<path class="st0" d="M478.2,710.2c-1,4-4,6.9-9.3,6.9c-7,0-10.4-5.2-10.4-11.7c0-6.3,3.5-11.9,10.6-11.9c5.6,0,8.5,3.2,9.2,7h-3.4
	c-0.6-2.7-3.1-4.5-5.9-4.2c-4.9,0-6.9,4.4-6.9,9c0,4.4,1.9,9,7,9c2.6,0.1,5-1.6,5.7-4.1L478.2,710.2z"/>
<path class="st0" d="M521,705.2c0,6.3-3.6,12-10.9,12c-6.9,0-10.6-5.2-10.6-11.8s3.9-11.8,10.9-11.8
	C516.9,693.4,521,698.3,521,705.2z M503,705.2c0,4.9,2.4,9.1,7.2,9.1c5.2,0,7.2-4.3,7.2-9s-2.3-8.9-7.2-8.9S503,700.3,503,705.2
	L503,705.2z"/>
<path class="st0" d="M563.2,707.2c0-4.2,0-8.6,0.2-11h-0.1c-1,3.9-4.5,13.4-7,20.6h-3c-1.9-6-5.5-16.6-6.5-20.7h-0.1
	c0.2,2.7,0.3,7.7,0.3,11.7v9h-3.2v-23h5.1c2.5,6.9,5.4,15.8,6.2,18.9h0c0.5-2.4,4.1-12.1,6.6-18.9h5v23h-3.4V707.2z"/>
<path class="st0" d="M590.5,693.8h8.9c4.6,0,7.7,2.5,7.7,6.8c0,4.6-3.3,6.9-7.8,6.9H594v9.3h-3.4L590.5,693.8z M594,704.7h5
	c3,0,4.6-1.4,4.6-4s-1.9-4-4.5-4H594L594,704.7z"/>
<path class="st0" d="M630.4,710.2l-2.3,6.6h-3.4l8.1-23h4.2l8.5,23h-3.6l-2.4-6.6H630.4z M638.6,707.3c-2.1-5.8-3.3-9-3.8-10.8l0,0
	c-0.6,2-1.9,5.8-3.6,10.8H638.6z"/>
<path class="st0" d="M666.9,716.8v-23h4.5c3.2,5.3,10,16.4,11.3,18.9h0c-0.2-2.8-0.2-6.5-0.2-10.3v-8.6h3.2v23h-4.2
	c-2.9-4.9-10.1-16.9-11.5-19.5l0,0c0.2,2.5,0.2,6.6,0.2,10.7v8.8L666.9,716.8z"/>
<path class="st0" d="M714.8,716.8v-8.4c0-0.2-0.1-0.4-0.2-0.6l-8.1-14h3.9c2,3.7,5.2,9.4,6.2,11.5c1-2.1,4.3-7.8,6.4-11.5h3.6
	l-8.3,14c-0.1,0.2-0.2,0.4-0.1,0.6v8.4L714.8,716.8z"/>
<path class="st0" d="M551.4,560.5H544v-2.9h18.2v2.9h-7.4v20.1h-3.4V560.5z"/>
<path class="st0" d="M583.3,557.6h3.4v9.5h11.5v-9.5h3.4v23h-3.4V570h-11.5v10.6h-3.4V557.6z"/>
<path class="st0" d="M640.4,570H629v7.7h12.5l-0.4,2.9h-15.4v-23h15.2v2.9H629v6.6h11.4L640.4,570z"/>
<g class="st1">
	<path class="st0" d="M319.2,656.4c0,10-7.5,15.8-18,15.8h-23.4V672c1.9-1.5,4.5-4.9,4.5-11.8v-29.5c0-6.3-2.1-10.1-4.5-11.8v-0.2
		H299c11.5,0,17.4,4.3,17.4,13.5c0,5.8-4.4,10.6-8.8,11.3v0.2C313.9,644.5,319.2,650.2,319.2,656.4z M292.9,626.3v13.8h5.5
		c4.5,0,7.2-2.5,7.2-7.4c0-4.4-2.6-6.5-7.2-6.5H292.9z M308.2,656c0-5.1-2.8-8.5-8.5-8.5h-6.8v17.1h6.8
		C305.4,664.7,308.2,661.1,308.2,656z"/>
	<path class="st0" d="M326.2,646c0-17.3,10.8-28.8,28.5-28.8c16.5,0,27.5,11.2,27.5,27.7c0,17.2-11.5,28.8-28.6,28.8
		C336.3,673.7,326.2,661.7,326.2,646z M370.7,645.7c0-13-6.3-20.5-16.8-20.5c-10.2,0-16.3,8-16.3,20c0,12.6,5.7,20.5,16.7,20.5
		C363.8,665.7,370.7,658,370.7,645.7z"/>
	<path class="st0" d="M387.6,672c2.5-2.7,4.2-5.8,4.6-11.2l2-29.8c0.3-4.2-0.7-10.1-4.2-12.2l0.1-0.2h17.6c-0.9,1.2-0.8,3.5,1.2,7
		l7.6,13.1c2.4,4.2,4.1,8.3,4.8,12.7h0.3c1.2-4.7,3.2-8.2,5.7-12.7l7.5-13.3c1.9-3.4,2.1-5.6,1.2-6.8h17.8l0.1,0.2
		c-3.5,1.9-4.8,7.9-4.5,12.2l2.4,29.8c0.3,3.7,1.8,8.4,4.5,11.2l-0.1,0.2h-17.6l-0.1-0.2c1.5-1.3,2.9-4.7,2.5-9.5l-1.2-15.9
		c-0.3-3.6-0.2-7.6,0.5-13.2h-0.3c-1.6,5.2-3.4,8.8-5.9,13.1l-8.5,14.5c-2.8,4.6-3.5,7.7-3.6,9.3h-0.6c-0.2-1.6-1-4.7-3.8-9.2
		l-9.2-14.6c-2.5-4-4.1-7.6-5.5-13h-0.3c0.6,5.8,0.6,9.9,0.5,13.2l-0.8,15.9c-0.2,4.8,1.1,8.2,2.5,9.5l-0.1,0.2h-16.9L387.6,672z"/>
	<path class="st0" d="M504.6,656.4c0,10-7.5,15.8-18,15.8h-23.4V672c1.9-1.5,4.5-4.9,4.5-11.8v-29.5c0-6.3-2.1-10.1-4.5-11.8v-0.2
		h21.2c11.5,0,17.4,4.3,17.4,13.5c0,5.8-4.4,10.6-8.8,11.3v0.2C499.4,644.5,504.6,650.2,504.6,656.4z M478.3,626.3v13.8h5.5
		c4.5,0,7.2-2.5,7.2-7.4c0-4.4-2.6-6.5-7.2-6.5H478.3z M493.6,656c0-5.1-2.8-8.5-8.5-8.5h-6.8v17.1h6.8
		C490.8,664.7,493.6,661.1,493.6,656z"/>
	<path class="st0" d="M560.9,672v0.2h-17.4V672c1.3-1,1.9-4.2,0-9.5l-0.7-1.8H523l-0.7,1.8c-2,5.3-1.2,8.5-0.2,9.5v0.2H506V672
		c2.1-1.8,5.4-6.5,7.5-12.5l11-31.7c1.5-4.5,0.1-7.8-1.4-9v-0.2h20.4v0.2c-1.5,1.3-3,4.5-1.4,9l11.3,31.7
		C555.5,665.5,558.8,670.3,560.9,672z M528.4,645l-2.8,8.2h14.8l-2.8-8.2c-1.8-5-3.7-10.2-4.5-16.1h-0.3
		C532,634.9,530.1,640,528.4,645z"/>
	<path class="st0" d="M606.3,618.7v0.2c-1.9,1.5-4.2,4.6-6.2,7.8l-14.5,24v9.3c0,6.6,2.2,10.7,4.7,12v0.2h-19.9V672
		c2.2-1.3,4.7-5.5,4.7-12v-8.9l-14.8-24.4c-1.9-3.2-4.3-6.4-6.2-7.8v-0.2h16.4v0.2c-0.7,2.1,0.3,5.3,1.8,7.8l5.9,10.2
		c0.8,1.4,1.6,2.8,2.4,5h0.3c0.8-2.2,1.7-3.6,2.5-5l5.8-10.2c1.5-2.5,2.5-5.8,1.7-7.8v-0.2H606.3z"/>
	<path class="st0" d="M628.6,672c1.9-1.3,4.2-5.1,4.2-11.4v-30.4c0-5.7-2.2-10.1-4.2-11.4v-0.2h22.3c16.2,0,26.8,9.9,26.8,26.7
		c0,16.8-9,26.8-28,26.8h-21.1V672z M650.5,664.6c10.3,0,15.8-6.8,15.8-19.2c0-13-5.2-19.1-16.2-19.1h-6.8v38.2H650.5z"/>
	<path class="st0" d="M685.6,672c1.9-1.3,4.2-5.1,4.2-11.4v-30.4c0-6.4-2.2-10.1-4.2-11.4v-0.2h18.9v0.2c-1.9,1.3-4.2,5.1-4.2,11.4
		v30.4c0,6.4,2.2,10.1,4.2,11.4v0.2h-18.9V672z"/>
	<path class="st0" d="M761.1,643.6v0.2c-1.8,1.2-2.5,4.5-2.5,11.4v12.7c-5.2,3.3-12.9,5.5-19.1,5.5c-16.1,0-27.1-11.2-27.1-27.2
		c0-17.8,11.5-28.5,28.6-28.5c5.6,0,10.7,0.8,14.6,2.1l1.2,12.5l-0.2,0.1c-3.9-4.4-9.2-6.6-15.8-6.6c-10.8,0-17,7.6-17,19.7
		c0,12.2,6.2,19.8,16.5,19.8c3.2,0,6-0.5,8.5-1.7V651c-4,0.1-8.5,0.9-11.5,4l-0.2-0.1l1.2-11.8c1.7,0.3,4.5,0.5,9.4,0.5H761.1z"/>
	<path class="st0" d="M767.6,672c1.9-1.3,4.2-5.1,4.2-11.4v-30.4c0-6.4-2.2-10.1-4.2-11.4v-0.2h18.9v0.2c-1.9,1.3-4.2,5.1-4.2,11.4
		v30.4c0,6.4,2.2,10.1,4.2,11.4v0.2h-18.9V672z"/>
	<path class="st0" d="M835.1,632.2l-0.2,0.1c-1.8-3.1-5.4-5.7-10-5.7h-5.8V660c0,6.6,2.2,10.7,4.7,12v0.2h-19.9V672
		c2.2-1.3,4.7-5.5,4.7-12v-33.5h-5.8c-4.6,0-8.2,2.6-10,5.7l-0.2-0.1l1.3-14.1c3.5,0.5,6.8,0.6,10.5,0.6h18.8c3.8,0,7-0.2,10.5-0.6
		L835.1,632.2z"/>
	<path class="st0" d="M887,672v0.2h-17.4V672c1.3-1,1.9-4.2,0-9.5l-0.7-1.8h-19.8l-0.7,1.8c-2,5.3-1.2,8.5-0.2,9.5v0.2h-16.2V672
		c2.1-1.8,5.4-6.5,7.5-12.5l11-31.7c1.5-4.5,0.1-7.8-1.4-9v-0.2h20.4v0.2c-1.5,1.3-3,4.5-1.4,9l11.3,31.7
		C881.5,665.5,884.8,670.3,887,672z M854.4,645l-2.8,8.2h14.8l-2.8-8.2c-1.8-5-3.7-10.2-4.5-16.1h-0.3
		C858.1,634.9,856.2,640,854.4,645z"/>
	<path class="st0" d="M917.4,672.2h-27.3V672c1.9-1.3,4.2-5.1,4.2-11.4V630c0-6.1-2.2-9.8-4.2-11.1v-0.2H909v0.2
		c-1.9,1.3-4.2,5.1-4.2,11.4v34.2h7.6c6.7,0,12.1-2.3,15.4-6.9l0.2,0.1l-2,15.2C923.1,672.3,921,672.2,917.4,672.2z"/>
</g>
<rect x="272.7" y="589.8" class="st0" width="656.3" height="4.7"/>
<rect x="272.7" y="735" class="st0" width="656.3" height="4.7"/>
<polygon class="st0" points="602.2,429.2 490.3,594.8 479.9,593 587.8,436.7 "/>
<polygon class="st0" points="596.1,434.6 304.9,591.4 302.5,590.3 593.8,433.5 "/>
<polygon class="st0" points="595.6,436.5 336.8,592.7 334.4,591.7 593.2,435.5 "/>
<polygon class="st0" points="584.4,445.3 374.9,594.2 372.7,593.4 582.2,444.6 "/>
<polygon class="st0" points="596,435.2 433.2,594.9 430.7,594.3 595.4,433.9 "/>
<polygon class="st0" points="602.7,429.2 713,594.8 723.2,593 616.9,436.7 "/>
<polygon class="st0" points="608.6,434.6 895.8,591.4 898.1,590.3 611,433.5 "/>
<polygon class="st0" points="609.2,436.5 864.3,592.7 866.7,591.7 611.5,435.5 "/>
<polygon class="st0" points="620.2,445.3 826.7,594.2 828.9,593.4 622.4,444.6 "/>
<polygon class="st0" points="608.8,435.2 769.2,594.9 771.7,594.3 609.4,433.9 "/>
<rect x="598.5" y="392.4" class="st0" width="7.3" height="41.6"/>
</svg>
